<svg xmlns="http://www.w3.org/2000/svg" xmlns:xlink="http://www.w3.org/1999/xlink" width="1080" zoomAndPan="magnify" viewBox="0 0 810 809.999993" height="1080" preserveAspectRatio="xMidYMid meet" version="1.0"><defs><clipPath id="7a4ed86484"><path d="M 228.300781 185.125 L 581.550781 185.125 L 581.550781 624 L 228.300781 624 Z M 228.300781 185.125 " clip-rule="nonzero"/></clipPath></defs><rect x="-81" width="972" fill="#ffffff" y="-80.999999" height="971.999992" fill-opacity="1"/><rect x="-81" width="972" fill="#ffffff" y="-80.999999" height="971.999992" fill-opacity="1"/><g clip-path="url(#7a4ed86484)"><path fill="#000000" d="M 541.390625 623.679688 L 268.554688 623.679688 C 267.25 623.691406 265.945312 623.640625 264.648438 623.523438 C 263.347656 623.40625 262.054688 623.226562 260.773438 622.984375 C 259.492188 622.742188 258.222656 622.433594 256.972656 622.066406 C 255.71875 621.699219 254.488281 621.273438 253.277344 620.785156 C 252.066406 620.296875 250.882812 619.75 249.726562 619.144531 C 248.570312 618.542969 247.445312 617.882812 246.351562 617.167969 C 245.261719 616.453125 244.207031 615.6875 243.1875 614.867188 C 242.171875 614.050781 241.199219 613.183594 240.265625 612.269531 C 239.332031 611.355469 238.449219 610.398438 237.609375 609.398438 C 236.773438 608.398438 235.984375 607.359375 235.25 606.28125 C 234.511719 605.203125 233.832031 604.09375 233.203125 602.949219 C 232.578125 601.804688 232.007812 600.632812 231.496094 599.433594 C 230.984375 598.230469 230.53125 597.007812 230.140625 595.765625 C 229.746094 594.519531 229.417969 593.257812 229.148438 591.980469 C 228.882812 590.703125 228.675781 589.417969 228.535156 588.121094 C 228.390625 586.824219 228.3125 585.519531 228.300781 584.214844 L 228.300781 364.328125 C 228.3125 363.023438 228.390625 361.722656 228.535156 360.425781 C 228.675781 359.128906 228.882812 357.839844 229.148438 356.566406 C 229.417969 355.289062 229.746094 354.027344 230.140625 352.78125 C 230.53125 351.539062 230.984375 350.316406 231.496094 349.113281 C 232.007812 347.914062 232.578125 346.742188 233.203125 345.597656 C 233.832031 344.453125 234.511719 343.339844 235.25 342.261719 C 235.984375 341.1875 236.773438 340.148438 237.609375 339.144531 C 238.449219 338.144531 239.332031 337.1875 240.265625 336.273438 C 241.199219 335.363281 242.171875 334.496094 243.1875 333.675781 C 244.207031 332.859375 245.261719 332.09375 246.351562 331.378906 C 247.445312 330.664062 248.570312 330.003906 249.726562 329.398438 C 250.882812 328.796875 252.066406 328.25 253.277344 327.761719 C 254.488281 327.273438 255.71875 326.84375 256.972656 326.476562 C 258.222656 326.109375 259.492188 325.804688 260.773438 325.5625 C 262.054688 325.320312 263.347656 325.140625 264.648438 325.023438 C 265.945312 324.90625 267.25 324.855469 268.554688 324.863281 L 340.652344 324.863281 C 341.457031 324.863281 342.253906 324.945312 343.046875 325.101562 C 343.835938 325.257812 344.601562 325.492188 345.347656 325.796875 C 346.089844 326.105469 346.796875 326.484375 347.464844 326.933594 C 348.136719 327.378906 348.753906 327.886719 349.324219 328.457031 C 349.894531 329.027344 350.402344 329.644531 350.851562 330.316406 C 351.296875 330.984375 351.675781 331.691406 351.984375 332.4375 C 352.292969 333.179688 352.523438 333.945312 352.683594 334.734375 C 352.839844 335.527344 352.917969 336.324219 352.917969 337.128906 C 352.917969 337.933594 352.839844 338.730469 352.683594 339.519531 C 352.523438 340.3125 352.292969 341.078125 351.984375 341.820312 C 351.675781 342.566406 351.296875 343.273438 350.851562 343.941406 C 350.402344 344.613281 349.894531 345.230469 349.324219 345.800781 C 348.753906 346.371094 348.136719 346.878906 347.464844 347.324219 C 346.796875 347.773438 346.089844 348.152344 345.347656 348.457031 C 344.601562 348.765625 343.835938 349 343.046875 349.15625 C 342.253906 349.3125 341.457031 349.390625 340.652344 349.390625 L 268.554688 349.390625 C 267.546875 349.367188 266.550781 349.441406 265.558594 349.613281 C 264.566406 349.785156 263.601562 350.050781 262.660156 350.414062 C 261.722656 350.777344 260.824219 351.226562 259.976562 351.765625 C 259.125 352.300781 258.332031 352.917969 257.605469 353.609375 C 256.875 354.304688 256.21875 355.0625 255.636719 355.882812 C 255.058594 356.707031 254.5625 357.578125 254.152344 358.496094 C 253.742188 359.414062 253.425781 360.367188 253.203125 361.347656 C 252.980469 362.328125 252.855469 363.324219 252.832031 364.328125 L 252.832031 584.214844 C 252.855469 585.222656 252.980469 586.214844 253.203125 587.199219 C 253.425781 588.179688 253.742188 589.128906 254.152344 590.050781 C 254.5625 590.96875 255.058594 591.839844 255.636719 592.664062 C 256.21875 593.484375 256.875 594.242188 257.605469 594.933594 C 258.332031 595.628906 259.125 596.246094 259.976562 596.78125 C 260.824219 597.320312 261.722656 597.769531 262.660156 598.132812 C 263.601562 598.492188 264.566406 598.761719 265.558594 598.933594 C 266.550781 599.105469 267.546875 599.179688 268.554688 599.152344 L 541.390625 599.152344 C 542.398438 599.179688 543.398438 599.105469 544.390625 598.933594 C 545.378906 598.761719 546.347656 598.492188 547.285156 598.132812 C 548.226562 597.769531 549.121094 597.320312 549.972656 596.78125 C 550.820312 596.246094 551.613281 595.628906 552.34375 594.933594 C 553.070312 594.242188 553.726562 593.484375 554.308594 592.664062 C 554.890625 591.839844 555.382812 590.96875 555.792969 590.050781 C 556.203125 589.128906 556.519531 588.179688 556.742188 587.199219 C 556.964844 586.214844 557.089844 585.222656 557.117188 584.214844 L 557.117188 364.328125 C 557.089844 363.324219 556.964844 362.328125 556.742188 361.347656 C 556.519531 360.367188 556.203125 359.414062 555.792969 358.496094 C 555.382812 357.578125 554.890625 356.707031 554.308594 355.882812 C 553.726562 355.0625 553.070312 354.304688 552.34375 353.609375 C 551.613281 352.917969 550.820312 352.300781 549.972656 351.765625 C 549.121094 351.226562 548.226562 350.777344 547.285156 350.414062 C 546.347656 350.050781 545.378906 349.785156 544.386719 349.613281 C 543.398438 349.441406 542.398438 349.367188 541.390625 349.390625 L 463.945312 349.390625 C 463.140625 349.390625 462.34375 349.3125 461.554688 349.15625 C 460.761719 349 459.996094 348.765625 459.253906 348.457031 C 458.507812 348.152344 457.800781 347.773438 457.132812 347.324219 C 456.460938 346.878906 455.84375 346.371094 455.273438 345.800781 C 454.703125 345.230469 454.195312 344.613281 453.746094 343.941406 C 453.300781 343.273438 452.921875 342.566406 452.613281 341.820312 C 452.304688 341.078125 452.074219 340.3125 451.917969 339.519531 C 451.757812 338.730469 451.679688 337.933594 451.679688 337.128906 C 451.679688 336.324219 451.757812 335.527344 451.917969 334.734375 C 452.074219 333.945312 452.304688 333.179688 452.613281 332.4375 C 452.921875 331.691406 453.300781 330.984375 453.746094 330.316406 C 454.195312 329.644531 454.703125 329.027344 455.273438 328.457031 C 455.84375 327.886719 456.460938 327.378906 457.132812 326.933594 C 457.800781 326.484375 458.507812 326.105469 459.253906 325.796875 C 459.996094 325.492188 460.761719 325.257812 461.554688 325.101562 C 462.34375 324.945312 463.140625 324.863281 463.945312 324.863281 L 541.390625 324.863281 C 542.695312 324.855469 543.996094 324.914062 545.292969 325.03125 C 546.589844 325.152344 547.878906 325.332031 549.160156 325.578125 C 550.4375 325.824219 551.703125 326.132812 552.953125 326.5 C 554.203125 326.871094 555.429688 327.300781 556.640625 327.789062 C 557.847656 328.28125 559.027344 328.828125 560.179688 329.433594 C 561.335938 330.039062 562.457031 330.699219 563.546875 331.414062 C 564.636719 332.128906 565.6875 332.894531 566.703125 333.710938 C 567.714844 334.53125 568.6875 335.398438 569.617188 336.308594 C 570.546875 337.222656 571.429688 338.179688 572.265625 339.179688 C 573.101562 340.179688 573.886719 341.21875 574.617188 342.292969 C 575.351562 343.371094 576.03125 344.480469 576.65625 345.625 C 577.28125 346.765625 577.851562 347.9375 578.359375 349.136719 C 578.871094 350.335938 579.324219 351.558594 579.714844 352.800781 C 580.105469 354.042969 580.433594 355.300781 580.699219 356.578125 C 580.96875 357.851562 581.171875 359.136719 581.316406 360.433594 C 581.457031 361.726562 581.535156 363.027344 581.550781 364.328125 L 581.550781 584.214844 C 581.535156 585.519531 581.457031 586.820312 581.316406 588.113281 C 581.171875 589.410156 580.96875 590.695312 580.699219 591.96875 C 580.433594 593.246094 580.105469 594.503906 579.714844 595.746094 C 579.324219 596.988281 578.871094 598.210938 578.359375 599.410156 C 577.851562 600.609375 577.28125 601.777344 576.65625 602.921875 C 576.03125 604.066406 575.351562 605.175781 574.617188 606.25 C 573.886719 607.328125 573.101562 608.367188 572.265625 609.367188 C 571.429688 610.367188 570.546875 611.324219 569.617188 612.234375 C 568.6875 613.148438 567.714844 614.015625 566.703125 614.832031 C 565.6875 615.652344 564.636719 616.417969 563.546875 617.132812 C 562.457031 617.847656 561.335938 618.507812 560.179688 619.113281 C 559.027344 619.71875 557.847656 620.265625 556.640625 620.757812 C 555.429688 621.246094 554.203125 621.675781 552.953125 622.042969 C 551.703125 622.414062 550.4375 622.722656 549.160156 622.96875 C 547.878906 623.210938 546.589844 623.394531 545.292969 623.515625 C 543.996094 623.632812 542.695312 623.6875 541.390625 623.679688 Z M 405.90625 475.265625 C 405.101562 475.265625 404.300781 475.1875 403.511719 475.03125 C 402.722656 474.875 401.957031 474.640625 401.210938 474.332031 C 400.46875 474.023438 399.761719 473.648438 399.089844 473.199219 C 398.421875 472.753906 397.800781 472.242188 397.230469 471.675781 C 396.664062 471.105469 396.152344 470.484375 395.707031 469.816406 C 395.257812 469.144531 394.882812 468.441406 394.574219 467.695312 C 394.265625 466.953125 394.03125 466.183594 393.875 465.394531 C 393.71875 464.605469 393.640625 463.808594 393.640625 463.003906 L 393.640625 229.085938 L 333.785156 287.65625 C 333.207031 288.222656 332.582031 288.722656 331.90625 289.164062 C 331.234375 289.605469 330.519531 289.976562 329.773438 290.277344 C 329.027344 290.578125 328.253906 290.800781 327.464844 290.953125 C 326.671875 291.101562 325.871094 291.171875 325.066406 291.164062 C 324.261719 291.152344 323.464844 291.066406 322.675781 290.902344 C 321.886719 290.734375 321.121094 290.496094 320.378906 290.179688 C 319.636719 289.863281 318.933594 289.476562 318.269531 289.023438 C 317.601562 288.566406 316.988281 288.050781 316.425781 287.476562 C 315.859375 286.898438 315.359375 286.273438 314.917969 285.601562 C 314.476562 284.925781 314.105469 284.214844 313.804688 283.464844 C 313.503906 282.71875 313.28125 281.949219 313.132812 281.15625 C 312.984375 280.363281 312.914062 279.566406 312.921875 278.757812 C 312.929688 277.953125 313.019531 277.15625 313.183594 276.367188 C 313.347656 275.578125 313.589844 274.8125 313.90625 274.074219 C 314.222656 273.332031 314.609375 272.628906 315.066406 271.964844 C 315.519531 271.296875 316.035156 270.683594 316.613281 270.121094 L 399.234375 189.328125 C 399.972656 188.625 400.792969 188.03125 401.6875 187.535156 C 403.667969 186.371094 405.8125 185.804688 408.113281 185.84375 C 409.996094 185.894531 411.769531 186.359375 413.4375 187.242188 C 414.472656 187.796875 415.414062 188.484375 416.257812 189.304688 L 497.257812 270.21875 C 497.8125 270.792969 498.304688 271.410156 498.738281 272.082031 C 499.171875 272.75 499.535156 273.453125 499.828125 274.191406 C 500.125 274.933594 500.34375 275.695312 500.492188 276.476562 C 500.640625 277.257812 500.710938 278.046875 500.703125 278.84375 C 500.695312 279.640625 500.613281 280.429688 500.449219 281.207031 C 500.289062 281.988281 500.054688 282.746094 499.75 283.480469 C 499.441406 284.214844 499.066406 284.914062 498.621094 285.574219 C 498.175781 286.234375 497.671875 286.847656 497.109375 287.410156 C 496.546875 287.972656 495.933594 288.476562 495.273438 288.921875 C 494.613281 289.363281 493.914062 289.738281 493.179688 290.046875 C 492.445312 290.355469 491.6875 290.589844 490.910156 290.75 C 490.128906 290.910156 489.339844 290.996094 488.542969 291 C 487.746094 291.007812 486.957031 290.9375 486.175781 290.792969 C 485.390625 290.644531 484.632812 290.421875 483.890625 290.128906 C 483.152344 289.832031 482.449219 289.46875 481.777344 289.039062 C 481.109375 288.605469 480.488281 288.113281 479.914062 287.558594 L 418.171875 225.824219 L 418.171875 463.003906 C 418.171875 463.808594 418.09375 464.605469 417.933594 465.394531 C 417.777344 466.183594 417.546875 466.953125 417.238281 467.695312 C 416.929688 468.441406 416.550781 469.144531 416.105469 469.816406 C 415.65625 470.484375 415.148438 471.105469 414.578125 471.675781 C 414.007812 472.242188 413.390625 472.753906 412.71875 473.199219 C 412.050781 473.648438 411.34375 474.023438 410.597656 474.332031 C 409.855469 474.640625 409.089844 474.875 408.296875 475.03125 C 407.507812 475.1875 406.710938 475.265625 405.90625 475.265625 Z M 405.90625 475.265625 " fill-opacity="1" fill-rule="nonzero"/></g></svg>